<svg version="1.1" id="Layer_1" xmlns="http://www.w3.org/2000/svg" xmlns:xlink="http://www.w3.org/1999/xlink" x="0px" y="0px"
	 width="100%" viewBox="0 0 1024 1024" enable-background="new 0 0 1024 1024" xml:space="preserve">
<path fill="#0170B8" opacity="1.000000" stroke="none" 
	d="
M902.065979,810.286438 
	C892.418945,819.515137 880.543823,824.160095 867.078857,826.641296 
	C861.780640,826.549133 857.173950,826.967102 852.567200,826.967712 
	C626.302551,826.996948 400.037842,826.988220 173.773148,827.022949 
	C171.852020,827.023254 169.930939,827.555664 168.009827,827.839600 
	C140.223526,825.955627 119.399994,813.116821 107.144165,787.907959 
	C97.000458,767.043518 97.316002,745.656189 108.401672,725.355408 
	C123.166229,698.317688 138.893448,671.803528 154.319962,645.129700 
	C222.366623,527.470886 290.465820,409.842499 358.520813,292.188568 
	C389.067017,239.380081 419.469879,186.488480 450.117523,133.739029 
	C459.802704,117.069313 473.666809,105.130981 492.906921,99.399185 
	C506.636200,97.600677 519.723450,96.205162 532.795898,99.894699 
	C533.409424,100.067856 534.257751,99.409241 534.996704,99.137978 
	C552.375427,104.583809 565.805908,115.159317 574.944702,130.835556 
	C608.402100,188.227097 641.715881,245.702393 675.062073,303.158722 
	C730.290039,398.317963 785.571045,493.446503 840.687866,588.670044 
	C865.756470,631.980164 890.642456,675.398315 915.220764,718.987732 
	C919.463257,726.511780 921.747437,735.139893 924.629883,743.931580 
	C924.229065,745.422363 924.054565,746.239502 924.052734,747.056946 
	C924.037659,753.634460 924.569336,760.263733 923.914246,766.774536 
	C923.290344,772.975525 921.438110,779.052856 920.125854,785.184570 
	C920.125854,785.184570 920.102051,785.061157 919.817505,785.176636 
	C918.394653,787.922974 917.256348,790.553833 916.118042,793.184753 
	C916.118042,793.184753 916.095215,793.066895 915.813171,793.165771 
	C914.407898,795.248962 913.284668,797.233337 912.161377,799.217712 
	C912.161438,799.217712 912.125977,799.098877 911.901123,799.197021 
	C911.532776,799.651489 911.389282,800.007690 911.245789,800.363892 
	C911.245789,800.363892 911.214539,800.179077 910.997070,800.254883 
	C910.699890,800.691284 910.620117,801.051819 910.540405,801.412415 
	C910.540405,801.412415 910.505310,801.485535 910.180420,801.456604 
	C909.604309,802.007812 909.353027,802.587952 909.101807,803.168091 
	C909.101807,803.168091 909.073181,803.060547 908.859131,803.158813 
	C908.461792,803.580383 908.278503,803.903625 908.095215,804.226929 
	C908.095276,804.226929 908.076599,804.072021 907.873962,804.177185 
	C907.503723,804.625854 907.336060,804.969360 907.168396,805.312866 
	C907.168396,805.312866 907.147278,805.132385 906.898438,805.198120 
	C906.163330,805.955139 905.677124,806.646484 905.190918,807.337769 
	C905.190918,807.337769 905.143555,807.156738 904.939087,807.226196 
	C904.534851,807.628418 904.335022,807.961182 904.135254,808.293884 
	C904.135254,808.293884 904.105652,808.113098 903.908752,808.196899 
	C903.508240,808.604919 903.304565,808.929016 903.100891,809.253113 
	C903.100891,809.253113 903.068359,809.082886 902.871826,809.184875 
	C902.472168,809.620056 902.269043,809.953247 902.065979,810.286438 
M167.969559,774.326294 
	C169.339188,774.544067 170.708786,774.952454 172.078445,774.952637 
	C398.676819,774.981689 625.275208,774.983948 851.873596,774.936340 
	C853.569885,774.935974 855.265991,774.237976 857.549255,773.414490 
	C868.526001,773.052002 877.533142,759.606750 870.324768,747.423096 
	C832.585388,683.634644 795.797302,619.283447 758.660278,555.138428 
	C700.091125,453.974731 641.531555,352.805481 582.915344,251.669098 
	C565.123169,220.970612 547.196655,190.349655 529.235291,159.749817 
	C525.923767,154.108109 521.438721,149.925323 514.263184,149.715225 
	C505.222839,149.450516 500.452209,155.277832 496.447021,162.042572 
	C484.959717,181.444580 473.505554,200.867538 462.213135,220.383362 
	C423.680969,286.975586 385.282654,353.645325 346.722046,420.221039 
	C305.334320,491.677795 263.840668,563.073181 222.354477,634.472900 
	C200.278198,672.467285 178.056229,710.377258 156.119766,748.452026 
	C154.366119,751.495728 153.324905,755.634338 153.690964,759.079407 
	C154.588593,767.527588 160.602554,771.735352 167.969559,774.326294 
z"/>
<path fill="#004EA8" opacity="1.000000" stroke="none" 
	d="
M168.474594,827.907227 
	C169.930939,827.555664 171.852020,827.023254 173.773148,827.022949 
	C400.037842,826.988220 626.302551,826.996948 852.567200,826.967712 
	C857.173950,826.967102 861.780640,826.549133 866.684814,826.587158 
	C862.519043,827.228638 858.055969,827.940491 853.592712,827.941406 
	C625.374939,827.990784 397.157135,827.979614 168.474594,827.907227 
z"/>
<path fill="#0B5EAF" opacity="1.000000" stroke="none" 
	d="
M534.620361,99.030380 
	C534.257751,99.409241 533.409424,100.067856 532.795898,99.894699 
	C519.723450,96.205162 506.636200,97.600677 493.275085,99.385193 
	C506.733887,94.759789 520.479187,94.910683 534.620361,99.030380 
z"/>
<path fill="#044BA8" opacity="1.000000" stroke="none" 
	d="
M920.424072,784.968689 
	C921.438110,779.052856 923.290344,772.975525 923.914246,766.774536 
	C924.569336,760.263733 924.037659,753.634460 924.052734,747.056946 
	C924.054565,746.239502 924.229065,745.422363 924.579956,744.318481 
	C927.771301,758.040527 926.108826,771.584839 920.424072,784.968689 
z"/>
<path fill="#044BA8" opacity="1.000000" stroke="none" 
	d="
M916.409485,792.996948 
	C917.256348,790.553833 918.394653,787.922974 919.880127,785.182007 
	C919.051880,787.651001 917.876404,790.230042 916.409485,792.996948 
z"/>
<path fill="#044BA8" opacity="1.000000" stroke="none" 
	d="
M912.450745,799.044312 
	C913.284668,797.233337 914.407898,795.248962 915.872925,793.171509 
	C915.056580,795.009338 913.898376,796.940125 912.450745,799.044312 
z"/>
<path fill="#044BA8" opacity="1.000000" stroke="none" 
	d="
M905.484375,807.222107 
	C905.677124,806.646484 906.163330,805.955139 906.987305,805.216919 
	C906.809326,805.815430 906.293579,806.460938 905.484375,807.222107 
z"/>
<path fill="#044BA8" opacity="1.000000" stroke="none" 
	d="
M909.360596,803.054810 
	C909.353027,802.587952 909.604309,802.007812 910.197144,801.493530 
	C910.232239,802.020142 909.925842,802.480774 909.360596,803.054810 
z"/>
<path fill="#044BA8" opacity="1.000000" stroke="none" 
	d="
M902.337036,810.164490 
	C902.269043,809.953247 902.472168,809.620056 902.958496,809.184326 
	C903.030518,809.402039 902.819275,809.722290 902.337036,810.164490 
z"/>
<path fill="#044BA8" opacity="1.000000" stroke="none" 
	d="
M903.380615,809.165405 
	C903.304565,808.929016 903.508240,808.604919 904.000000,808.205078 
	C904.078918,808.445557 903.869690,808.761658 903.380615,809.165405 
z"/>
<path fill="#044BA8" opacity="1.000000" stroke="none" 
	d="
M904.414490,808.204712 
	C904.335022,807.961182 904.534851,807.628418 905.032410,807.233826 
	C905.117981,807.486450 904.905823,807.800964 904.414490,808.204712 
z"/>
<path fill="#044BA8" opacity="1.000000" stroke="none" 
	d="
M907.437805,805.206421 
	C907.336060,804.969360 907.503723,804.625854 907.951660,804.183350 
	C908.057129,804.422974 907.882141,804.761536 907.437805,805.206421 
z"/>
<path fill="#044BA8" opacity="1.000000" stroke="none" 
	d="
M908.360535,804.125183 
	C908.278503,803.903625 908.461792,803.580383 908.914795,803.158447 
	C908.998291,803.380981 908.812073,803.702209 908.360535,804.125183 
z"/>
<path fill="#044BA8" opacity="1.000000" stroke="none" 
	d="
M910.765503,801.290405 
	C910.620117,801.051819 910.699890,800.691284 911.087280,800.280457 
	C911.260132,800.542908 911.125427,800.855652 910.765503,801.290405 
z"/>
<path fill="#044BA8" opacity="1.000000" stroke="none" 
	d="
M911.505615,800.246338 
	C911.389282,800.007690 911.532776,799.651489 911.962830,799.203003 
	C912.088074,799.450134 911.926758,799.789490 911.505615,800.246338 
z"/>
<path fill="#00379D" opacity="1.000000" stroke="none" 
	d="
M168.156311,774.080200 
	C237.644165,773.861328 306.945282,773.920593 376.246368,773.909302 
	C536.175720,773.883301 696.105042,773.823059 856.498291,773.821228 
	C855.265991,774.237976 853.569885,774.935974 851.873596,774.936340 
	C625.275208,774.983948 398.676819,774.981689 172.078445,774.952637 
	C170.708786,774.952454 169.339188,774.544067 168.156311,774.080200 
z"/>
<path fill="#016FB8" opacity="1.000000" stroke="none" 
	d="
M503.228302,412.997955 
	C501.221893,405.726044 499.215485,398.454163 496.961456,390.284821 
	C488.167053,404.958771 482.460022,419.792114 478.111206,435.020386 
	C468.719879,467.905670 460.026642,500.989990 450.992126,533.977661 
	C447.265747,547.583740 441.903412,560.314697 430.258789,569.995605 
	C429.338379,570.580139 429.064362,571.039612 428.790344,571.499084 
	C428.790344,571.499084 428.611664,571.729980 428.237091,571.638794 
	C427.761505,571.843689 427.660461,572.139648 427.559418,572.435669 
	C427.559418,572.435669 427.462646,572.446411 427.124451,572.412720 
	C426.214874,572.968689 425.643494,573.558472 425.072113,574.148254 
	C425.072113,574.148254 425.045990,574.054932 424.759094,574.080078 
	C424.081329,574.538391 423.690430,574.971497 423.299561,575.404541 
	C423.299530,575.404541 423.055573,575.393188 422.799591,575.299561 
	C419.232574,576.994385 415.921539,578.782898 412.610535,580.571411 
	C412.610535,580.571411 412.414886,580.648315 411.919434,580.442444 
	C401.366119,580.827637 391.306519,581.391418 381.251770,582.031982 
	C379.158417,582.165405 377.083191,582.583374 374.999603,582.870239 
	C364.244934,581.256531 353.354523,580.245789 342.772949,577.863220 
	C331.690643,575.367981 327.856201,562.118469 329.578674,552.528015 
	C331.754791,540.411621 339.003265,533.708252 350.384338,534.048523 
	C359.820648,534.330627 369.242432,535.295959 378.652588,536.156189 
	C382.296600,536.489319 385.875153,537.771362 389.511017,537.912415 
	C397.627014,538.227234 402.869476,534.227478 405.035034,526.272888 
	C413.065277,496.776062 420.436432,467.084808 429.180145,437.802521 
	C435.119507,417.911896 442.654633,398.474884 450.032990,379.046478 
	C453.746033,369.269440 459.105347,360.233856 467.799866,353.022125 
	C468.966522,352.253662 469.474792,351.605286 469.983032,350.956909 
	C469.983032,350.956879 469.996765,351.004242 470.334290,350.967194 
	C472.247070,349.771851 473.822266,348.613556 475.397491,347.455231 
	C475.397491,347.455231 475.533356,347.422272 475.861298,347.518433 
	C476.445801,347.369019 476.702362,347.123413 476.958923,346.877838 
	C476.958923,346.877838 476.964325,346.960052 477.329346,346.963562 
	C478.974640,346.644379 480.271271,346.375031 481.532593,345.990112 
	C488.870178,343.751068 496.236786,341.926147 503.953278,344.032806 
	C508.400970,345.247040 512.852722,346.446320 517.302612,347.652344 
	C517.302612,347.652344 517.136841,347.651794 517.236938,347.991852 
	C518.350159,348.680176 519.363220,349.028442 520.376343,349.376709 
	C520.376343,349.376709 520.404907,349.471863 520.415222,349.811218 
	C521.012085,350.387085 521.598572,350.623596 522.185120,350.860107 
	C522.185120,350.860077 522.085388,350.892792 522.192078,351.114807 
	C522.650696,351.457214 523.002686,351.577637 523.354614,351.698090 
	C523.354614,351.698090 523.211914,351.718231 523.261719,352.016815 
	C524.580017,353.186157 525.848511,354.056915 527.117004,354.927673 
	C527.117004,354.927673 527.039001,354.953339 527.146240,355.165894 
	C527.561340,355.558472 527.869202,355.738434 528.177063,355.918427 
	C528.177063,355.918427 528.064453,355.933472 528.160522,356.139771 
	C528.559570,356.540863 528.862427,356.735657 529.165344,356.930450 
	C529.165344,356.930450 529.056946,356.943756 529.151367,357.146210 
	C529.535217,357.551514 529.824646,357.754364 530.114136,357.957184 
	C530.114136,357.957184 530.033264,357.969757 530.056580,358.278687 
	C530.828125,359.327606 531.576355,360.067657 532.324585,360.807678 
	C532.324585,360.807678 532.213135,360.851654 532.176758,361.169647 
	C534.817688,366.642059 537.494934,371.796478 540.172119,376.950897 
	C540.172119,376.950897 540.075012,376.956543 540.059387,377.310730 
	C543.233765,390.212555 546.364807,402.775665 549.656921,415.296448 
	C550.438538,418.269196 551.760010,421.100067 552.833130,423.996185 
	C553.541931,427.401978 554.250671,430.807770 554.652832,434.898315 
	C555.402893,443.403229 556.379517,451.235291 557.536804,459.040527 
	C558.941406,468.513947 560.765625,477.932098 561.925598,487.433105 
	C563.567688,500.883209 564.715210,514.392944 566.172424,527.866577 
	C567.717468,542.152283 569.434875,556.419373 570.968506,570.706238 
	C572.115356,581.389465 572.956909,592.106934 574.217712,602.775635 
	C574.625122,606.223389 575.932068,609.564819 576.827576,612.954895 
	C578.198364,623.030090 579.569153,633.105347 580.636169,643.883484 
	C580.108643,651.328003 581.417542,657.744263 584.287231,665.380249 
	C585.747375,663.086609 586.754272,662.057495 587.128540,660.834839 
	C593.748962,639.207214 600.372498,617.579712 606.770508,595.885803 
	C607.790588,592.427185 607.724121,588.648071 608.159973,585.017151 
	C609.459167,579.568359 610.758301,574.119507 612.560425,568.224487 
	C613.977417,564.774109 614.891357,561.769897 615.805298,558.765686 
	C615.805298,558.765686 615.837646,558.911438 616.097534,558.781189 
	C617.345886,556.308105 618.334351,553.965210 619.322876,551.622314 
	C619.322815,551.622314 619.367493,551.445190 619.747498,551.479919 
	C620.747375,550.310608 621.367249,549.106628 621.987183,547.902649 
	C621.957642,547.559570 622.084106,547.289551 622.852783,546.929565 
	C623.547852,546.466431 623.756592,546.166199 623.965393,545.866028 
	C623.965393,545.866028 623.970703,545.971680 624.169556,545.868042 
	C624.571533,545.475098 624.774597,545.185852 624.977600,544.896545 
	C624.977600,544.896545 624.975952,544.972656 625.275696,544.945129 
	C625.832031,544.436523 626.088684,543.955505 626.345276,543.474426 
	C626.345276,543.474426 626.462769,543.467224 626.825317,543.534790 
	C627.336182,543.251282 627.484436,542.900269 627.632690,542.549255 
	C627.632690,542.549255 627.744385,542.619751 627.979614,542.654785 
	C628.458374,542.401794 628.701904,542.113770 628.945496,541.825806 
	C628.945496,541.825806 628.946838,541.931213 629.234802,541.920654 
	C629.958252,541.483337 630.393677,541.056641 630.829102,540.629944 
	C630.829102,540.629944 630.880981,540.776794 631.187378,540.817139 
	C632.801331,540.040588 634.108826,539.223694 635.416260,538.406860 
	C635.416260,538.406799 635.664246,538.374084 636.169556,538.614868 
	C640.602966,538.572937 644.528809,538.089783 648.459473,538.046265 
	C658.888367,537.930664 669.319702,538.043701 679.749268,537.965698 
	C681.494629,537.952637 683.236328,537.438354 684.979675,537.155640 
	C685.444092,537.112061 685.908447,537.068542 686.820068,537.289490 
	C687.452393,537.741150 687.670227,537.875305 687.920654,537.956482 
	C695.690796,538.908752 701.503418,542.581055 703.878479,550.306641 
	C706.914490,560.182068 704.482605,568.766968 696.384155,576.058533 
	C695.527893,576.508972 695.272644,576.797424 695.017334,577.085876 
	C695.017334,577.085876 695.015259,577.013672 694.647034,577.021729 
	C691.596375,577.688538 688.939453,578.762085 686.226746,578.929504 
	C677.533813,579.466003 668.814697,579.575745 660.120239,580.093567 
	C658.779846,580.173401 657.515686,581.533569 656.216309,582.301636 
	C656.216309,582.301636 656.156189,582.136108 655.928345,582.237854 
	C655.492493,582.935120 655.284546,583.530701 655.076538,584.126282 
	C655.076599,584.126282 655.048523,584.043030 654.776001,584.219177 
	C654.311951,584.665466 654.024719,584.909424 653.942505,585.209473 
	C649.967224,599.722473 645.993103,614.235962 642.105835,628.772583 
	C641.937622,629.401489 642.587036,630.249023 642.855530,630.994751 
	C635.840820,656.487976 629.045654,682.105591 615.172180,704.983032 
	C604.505249,722.573059 583.996643,729.877075 566.723999,721.970581 
	C561.559509,719.606628 557.549194,714.721436 552.966675,710.303711 
	C552.221252,708.765808 551.519165,707.915649 550.817139,707.065430 
	C550.817139,707.065430 550.919250,707.059326 550.916626,706.778320 
	C550.535706,706.021362 550.157532,705.545349 549.779297,705.069336 
	C549.779297,705.069336 549.901794,705.063293 549.903320,704.788818 
	C549.521118,704.036865 549.137268,703.559387 548.753479,703.081848 
	C548.753479,703.081848 548.884155,703.074158 548.893433,702.803040 
	C548.532593,702.044373 548.162354,701.556763 547.792114,701.069214 
	C547.792114,701.069214 547.904358,701.063782 547.921997,700.708984 
	C544.143188,684.954590 539.508484,669.702759 536.763306,654.118103 
	C533.357300,634.782349 531.497925,615.173401 529.007385,595.677734 
	C528.065430,588.304810 527.199707,580.921753 526.346130,573.537903 
	C525.207703,563.689819 524.114868,553.836426 523.005127,543.542847 
	C522.672729,539.643494 522.375732,536.182434 521.995239,532.730591 
	C520.926270,523.033813 519.919373,513.328735 518.710754,503.649048 
	C516.889038,489.059906 515.187195,474.447601 512.933960,459.922791 
	C510.604614,444.907257 507.697693,429.980743 504.953491,415.031830 
	C504.814301,414.273834 503.822906,413.672302 503.228302,412.997955 
z"/>
<path fill="#0C5BAF" opacity="1.000000" stroke="none" 
	d="
M576.883667,612.529907 
	C575.932068,609.564819 574.625122,606.223389 574.217712,602.775635 
	C572.956909,592.106934 572.115356,581.389465 570.968506,570.706238 
	C569.434875,556.419373 567.717468,542.152283 566.172424,527.866577 
	C564.715210,514.392944 563.567688,500.883209 561.925598,487.433105 
	C560.765625,477.932098 558.941406,468.513947 557.536804,459.040527 
	C556.379517,451.235291 555.402893,443.403229 554.610352,435.297180 
	C557.598816,452.297211 560.762451,469.527740 562.948547,486.881439 
	C566.606384,515.917480 569.669434,545.028809 572.922852,574.115173 
	C574.338318,586.769836 575.605347,599.441101 576.883667,612.529907 
z"/>
<path fill="#0656AC" opacity="1.000000" stroke="none" 
	d="
M523.002441,543.985352 
	C524.114868,553.836426 525.207703,563.689819 526.346130,573.537903 
	C527.199707,580.921753 528.065430,588.304810 529.007385,595.677734 
	C531.497925,615.173401 533.357300,634.782349 536.763306,654.118103 
	C539.508484,669.702759 544.143188,684.954590 547.907715,700.763306 
	C544.257812,689.208313 539.656372,677.437805 537.252930,665.234497 
	C533.673523,647.060486 531.409851,628.611389 529.030701,610.221802 
	C527.020325,594.681702 525.646606,579.059448 523.980591,563.474609 
	C523.316589,557.262756 522.624390,551.053833 522.217163,544.418579 
	C522.660400,543.990906 522.831421,543.988098 523.002441,543.985352 
z"/>
<path fill="#0D5CB0" opacity="1.000000" stroke="none" 
	d="
M523.005127,543.542847 
	C522.831421,543.988098 522.660400,543.990906 522.232910,544.000854 
	C520.654480,532.885071 519.379089,521.756165 517.999817,510.640259 
	C515.884216,493.590485 514.006165,476.503052 511.448944,459.518677 
	C509.143738,444.208038 506.061646,429.014435 503.275269,413.383575 
	C503.822906,413.672302 504.814301,414.273834 504.953491,415.031830 
	C507.697693,429.980743 510.604614,444.907257 512.933960,459.922791 
	C515.187195,474.447601 516.889038,489.059906 518.710754,503.649048 
	C519.919373,513.328735 520.926270,523.033813 521.995239,532.730591 
	C522.375732,536.182434 522.672729,539.643494 523.005127,543.542847 
z"/>
<path fill="#0959AD" opacity="1.000000" stroke="none" 
	d="
M608.046875,585.383301 
	C607.724121,588.648071 607.790588,592.427185 606.770508,595.885803 
	C600.372498,617.579712 593.748962,639.207214 587.128540,660.834839 
	C586.754272,662.057495 585.747375,663.086609 584.287231,665.380249 
	C581.417542,657.744263 580.108643,651.328003 580.593628,644.297729 
	C581.976318,650.180359 583.097717,656.351624 584.472595,663.917725 
	C594.521973,637.651794 601.107788,611.663574 608.046875,585.383301 
z"/>
<path fill="#0D5CB0" opacity="1.000000" stroke="none" 
	d="
M552.817383,423.594513 
	C551.760010,421.100067 550.438538,418.269196 549.656921,415.296448 
	C546.364807,402.775665 543.233765,390.212555 540.069275,377.263123 
	C542.744263,385.243225 545.621704,393.561890 547.972290,402.026855 
	C549.906372,408.992126 551.215515,416.130951 552.817383,423.594513 
z"/>
<path fill="#0454AB" opacity="1.000000" stroke="none" 
	d="
M642.953369,630.616211 
	C642.587036,630.249023 641.937622,629.401489 642.105835,628.772583 
	C645.993103,614.235962 649.967224,599.722473 653.942505,585.209473 
	C654.024719,584.909424 654.311951,584.665466 654.819702,584.214478 
	C651.107666,599.434937 647.079407,614.836243 642.953369,630.616211 
z"/>
<path fill="#0D5CB0" opacity="1.000000" stroke="none" 
	d="
M517.073608,347.387756 
	C512.852722,346.446320 508.400970,345.247040 503.953278,344.032806 
	C496.236786,341.926147 488.870178,343.751068 481.532593,345.990112 
	C480.271271,346.375031 478.974640,346.644379 477.291473,346.947296 
	C490.243317,339.631592 503.557220,340.673492 517.073608,347.387756 
z"/>
<path fill="#1969B5" opacity="1.000000" stroke="none" 
	d="
M375.432007,582.950256 
	C377.083191,582.583374 379.158417,582.165405 381.251770,582.031982 
	C391.306519,581.391418 401.366119,580.827637 411.816101,580.423279 
	C402.328613,584.237732 392.087585,584.209778 381.793793,583.591309 
	C379.813263,583.472351 377.840637,583.220764 375.432007,582.950256 
z"/>
<path fill="#054FA8" opacity="1.000000" stroke="none" 
	d="
M684.516113,537.087524 
	C683.236328,537.438354 681.494629,537.952637 679.749268,537.965698 
	C669.319702,538.043701 658.888367,537.930664 648.459473,538.046265 
	C644.528809,538.089783 640.602966,538.572937 636.248596,538.711792 
	C638.345642,538.045227 640.864502,537.097412 643.393127,537.070679 
	C656.944946,536.927002 670.499207,537.012817 684.516113,537.087524 
z"/>
<path fill="#0454AB" opacity="1.000000" stroke="none" 
	d="
M656.597534,582.135254 
	C657.515686,581.533569 658.779846,580.173401 660.120239,580.093567 
	C668.814697,579.575745 677.533813,579.466003 686.226746,578.929504 
	C688.939453,578.762085 691.596375,577.688538 694.680359,577.035645 
	C690.929443,578.356934 686.847656,580.414734 682.608398,580.817810 
	C675.864319,581.459167 669.014343,580.933167 662.211487,581.046082 
	C660.462646,581.075073 658.722778,581.646667 656.597534,582.135254 
z"/>
<path fill="#0D5CB0" opacity="1.000000" stroke="none" 
	d="
M540.125549,376.564148 
	C537.494934,371.796478 534.817688,366.642059 532.192444,361.111816 
	C534.855957,365.883118 537.467468,371.030243 540.125549,376.564148 
z"/>
<path fill="#1969B5" opacity="1.000000" stroke="none" 
	d="
M412.937073,580.444702 
	C415.921539,578.782898 419.232574,576.994385 422.920593,575.290894 
	C419.952972,577.023315 416.608307,578.670654 412.937073,580.444702 
z"/>
<path fill="#054FA8" opacity="1.000000" stroke="none" 
	d="
M615.519592,558.985291 
	C614.891357,561.769897 613.977417,564.774109 612.739258,567.854492 
	C613.354614,565.022156 614.294189,562.113525 615.519592,558.985291 
z"/>
<path fill="#054FA8" opacity="1.000000" stroke="none" 
	d="
M619.082458,551.825073 
	C618.334351,553.965210 617.345886,556.308105 616.023560,558.770630 
	C616.740540,556.602844 617.791321,554.315308 619.082458,551.825073 
z"/>
<path fill="#0D5CB0" opacity="1.000000" stroke="none" 
	d="
M475.112305,347.602448 
	C473.822266,348.613556 472.247070,349.771851 470.312744,350.955261 
	C471.578125,349.903473 473.202637,348.826569 475.112305,347.602448 
z"/>
<path fill="#054FA8" opacity="1.000000" stroke="none" 
	d="
M635.113586,538.523621 
	C634.108826,539.223694 632.801331,540.040588 631.109985,540.808716 
	C632.087769,540.053406 633.449341,539.346924 635.113586,538.523621 
z"/>
<path fill="#0D5CB0" opacity="1.000000" stroke="none" 
	d="
M526.982666,354.629578 
	C525.848511,354.056915 524.580017,353.186157 523.299988,351.955750 
	C524.475037,352.507935 525.661682,353.419708 526.982666,354.629578 
z"/>
<path fill="#0D5CB0" opacity="1.000000" stroke="none" 
	d="
M520.160706,349.169464 
	C519.363220,349.028442 518.350159,348.680176 517.310547,347.953796 
	C518.171082,348.037903 519.058105,348.500061 520.160706,349.169464 
z"/>
<path fill="#054FA8" opacity="1.000000" stroke="none" 
	d="
M621.711182,548.062439 
	C621.367249,549.106628 620.747375,550.310608 619.785950,551.397095 
	C620.107971,550.260437 620.771606,549.241333 621.711182,548.062439 
z"/>
<path fill="#0656AC" opacity="1.000000" stroke="none" 
	d="
M550.876526,707.396362 
	C551.519165,707.915649 552.221252,708.765808 552.916016,709.976440 
	C552.251099,709.466919 551.593506,708.597107 550.876526,707.396362 
z"/>
<path fill="#0D5CB0" opacity="1.000000" stroke="none" 
	d="
M532.241028,360.500153 
	C531.576355,360.067657 530.828125,359.327606 530.071777,358.240662 
	C530.761536,358.660034 531.459534,359.426331 532.241028,360.500153 
z"/>
<path fill="#0D5CB0" opacity="1.000000" stroke="none" 
	d="
M469.691895,351.052368 
	C469.474792,351.605286 468.966522,352.253662 468.112061,352.915344 
	C468.310822,352.335022 468.855804,351.741425 469.691895,351.052368 
z"/>
<path fill="#1969B5" opacity="1.000000" stroke="none" 
	d="
M425.356567,574.074707 
	C425.643494,573.558472 426.214874,572.968689 427.108154,572.458496 
	C426.833679,573.025818 426.237366,573.513489 425.356567,574.074707 
z"/>
<path fill="#0656AC" opacity="1.000000" stroke="none" 
	d="
M548.810181,703.394531 
	C549.137268,703.559387 549.521118,704.036865 549.889038,704.848511 
	C549.537720,704.690796 549.202271,704.199036 548.810181,703.394531 
z"/>
<path fill="#0D5CB0" opacity="1.000000" stroke="none" 
	d="
M522.064697,350.602386 
	C521.598572,350.623596 521.012085,350.387085 520.464600,349.805481 
	C520.983826,349.755157 521.463989,350.049927 522.064697,350.602386 
z"/>
<path fill="#0656AC" opacity="1.000000" stroke="none" 
	d="
M549.838379,705.378052 
	C550.157532,705.545349 550.535706,706.021362 550.904907,706.828125 
	C550.563049,706.668213 550.230286,706.177490 549.838379,705.378052 
z"/>
<path fill="#0656AC" opacity="1.000000" stroke="none" 
	d="
M547.819824,701.387207 
	C548.162354,701.556763 548.532593,702.044373 548.877014,702.866394 
	C548.516724,702.702332 548.182129,702.203735 547.819824,701.387207 
z"/>
<path fill="#0454AB" opacity="1.000000" stroke="none" 
	d="
M655.327820,583.955200 
	C655.284546,583.530701 655.492493,582.935120 656.016357,582.238098 
	C656.081238,582.685791 655.830139,583.234985 655.327820,583.955200 
z"/>
<path fill="#054FA8" opacity="1.000000" stroke="none" 
	d="
M630.524292,540.697876 
	C630.393677,541.056641 629.958252,541.483337 629.183533,541.908447 
	C629.302734,541.526489 629.761108,541.146179 630.524292,540.697876 
z"/>
<path fill="#1969B5" opacity="1.000000" stroke="none" 
	d="
M423.586853,575.329773 
	C423.690430,574.971497 424.081329,574.538391 424.802307,574.102112 
	C424.712952,574.484314 424.293549,574.869690 423.586853,575.329773 
z"/>
<path fill="#054FA8" opacity="1.000000" stroke="none" 
	d="
M626.117737,543.610168 
	C626.088684,543.955505 625.832031,544.436523 625.238892,544.935486 
	C625.231628,544.550903 625.560913,544.148376 626.117737,543.610168 
z"/>
<path fill="#1969B5" opacity="1.000000" stroke="none" 
	d="
M429.010651,571.358276 
	C429.064362,571.039612 429.338379,570.580139 429.954987,570.118042 
	C429.942047,570.482788 429.586517,570.850098 429.010651,571.358276 
z"/>
<path fill="#0D5CB0" opacity="1.000000" stroke="none" 
	d="
M523.230957,351.450745 
	C523.002686,351.577637 522.650696,351.457214 522.196045,351.062439 
	C522.431335,350.926544 522.769287,351.064972 523.230957,351.450745 
z"/>
<path fill="#054FA8" opacity="1.000000" stroke="none" 
	d="
M623.698914,545.957275 
	C623.756592,546.166199 623.547852,546.466431 623.076782,546.865967 
	C623.020447,546.659790 623.226440,546.354187 623.698914,545.957275 
z"/>
<path fill="#054FA8" opacity="1.000000" stroke="none" 
	d="
M627.398315,542.623596 
	C627.484436,542.900269 627.336182,543.251282 626.881714,543.517822 
	C626.646118,543.087891 626.842285,542.842773 627.398315,542.623596 
z"/>
<path fill="#054FA8" opacity="1.000000" stroke="none" 
	d="
M628.673584,541.888367 
	C628.701904,542.113770 628.458374,542.401794 627.916870,542.675232 
	C627.879822,542.424072 628.140747,542.187500 628.673584,541.888367 
z"/>
<path fill="#054FA8" opacity="1.000000" stroke="none" 
	d="
M687.933105,537.712280 
	C687.670227,537.875305 687.452393,537.741150 687.155273,537.396118 
	C687.394348,537.117676 687.695068,537.194275 687.933105,537.712280 
z"/>
<path fill="#0D5CB0" opacity="1.000000" stroke="none" 
	d="
M528.078369,355.661743 
	C527.869202,355.738434 527.561340,355.558472 527.148865,355.124908 
	C527.356079,355.049255 527.667908,355.227173 528.078369,355.661743 
z"/>
<path fill="#0D5CB0" opacity="1.000000" stroke="none" 
	d="
M529.074646,356.669006 
	C528.862427,356.735657 528.559570,356.540863 528.166870,356.083313 
	C528.379395,356.016235 528.681702,356.211914 529.074646,356.669006 
z"/>
<path fill="#1969B5" opacity="1.000000" stroke="none" 
	d="
M427.721100,572.381165 
	C427.660461,572.139648 427.761505,571.843689 428.100159,571.689453 
	C428.240723,572.046570 428.089050,572.211670 427.721100,572.381165 
z"/>
<path fill="#054FA8" opacity="1.000000" stroke="none" 
	d="
M624.718079,544.985352 
	C624.774597,545.185852 624.571533,545.475098 624.116821,545.864624 
	C624.062927,545.667969 624.260742,545.371094 624.718079,544.985352 
z"/>
<path fill="#0D5CB0" opacity="1.000000" stroke="none" 
	d="
M530.031616,357.695709 
	C529.824646,357.754364 529.535217,357.551514 529.156616,357.091858 
	C529.361389,357.034760 529.655212,357.234497 530.031616,357.695709 
z"/>
<path fill="#0454AB" opacity="1.000000" stroke="none" 
	d="
M695.305359,577.015991 
	C695.272644,576.797424 695.527893,576.508972 696.072388,576.148315 
	C696.105591,576.366089 695.849487,576.656128 695.305359,577.015991 
z"/>
<path fill="#0D5CB0" opacity="1.000000" stroke="none" 
	d="
M476.719421,346.907074 
	C476.702362,347.123413 476.445801,347.369019 475.928406,347.498810 
	C475.857758,347.087708 476.128540,346.938812 476.719421,346.907074 
z"/>
</svg>